<svg xmlns="http://www.w3.org/2000/svg" xmlns:xlink="http://www.w3.org/1999/xlink" width="1920" zoomAndPan="magnify" viewBox="0 0 1440 1439.999935" height="1920" preserveAspectRatio="xMidYMid meet" version="1.0"><defs><g><g id="id1"/></g></defs><g fill="rgb(88.62915%, 93.728638%, 95.689392%)" fill-opacity="1"><g transform="translate(0.0000325, 327.757332)"><g><path d="M 36.546875 -304.859375 L 267.484375 -304.859375 C 276.335938 -304.859375 282.84375 -303.816406 287 -301.734375 C 291.15625 -299.660156 293.925781 -296.410156 295.3125 -291.984375 C 296.695312 -287.554688 297.390625 -281.742188 297.390625 -274.546875 C 297.390625 -267.347656 296.695312 -261.601562 295.3125 -257.3125 C 293.925781 -253.019531 291.570312 -250.039062 288.25 -248.375 C 283.257812 -245.882812 276.195312 -244.640625 267.0625 -244.640625 L 187.734375 -244.640625 L 187.734375 -35.71875 C 187.734375 -29.351562 187.523438 -24.644531 187.109375 -21.59375 C 186.691406 -18.550781 185.445312 -15.019531 183.375 -11 C 181.300781 -6.988281 177.628906 -4.148438 172.359375 -2.484375 C 167.097656 -0.828125 160.175781 0 151.59375 0 C 143.007812 0 136.15625 -0.828125 131.03125 -2.484375 C 125.914062 -4.148438 122.316406 -6.988281 120.234375 -11 C 118.160156 -15.019531 116.914062 -18.617188 116.5 -21.796875 C 116.082031 -24.984375 115.875 -29.765625 115.875 -36.140625 L 115.875 -244.640625 L 36.140625 -244.640625 C 27.273438 -244.640625 20.765625 -245.675781 16.609375 -247.75 C 12.460938 -249.832031 9.695312 -253.085938 8.3125 -257.515625 C 6.925781 -261.941406 6.234375 -267.753906 6.234375 -274.953125 C 6.234375 -282.148438 6.925781 -287.894531 8.3125 -292.1875 C 9.695312 -296.476562 12.050781 -299.457031 15.375 -301.125 C 20.351562 -303.613281 27.410156 -304.859375 36.546875 -304.859375 Z M 36.546875 -304.859375 "/></g></g></g><g fill="rgb(88.62915%, 93.728638%, 95.689392%)" fill-opacity="1"><g transform="translate(309.822842, 327.757332)"><g><path d="M 137.890625 -218.0625 C 165.578125 -218.0625 188.628906 -207.535156 207.046875 -186.484375 C 225.460938 -165.441406 234.671875 -139.691406 234.671875 -109.234375 L 234.671875 -36.140625 C 234.671875 -29.765625 234.460938 -24.984375 234.046875 -21.796875 C 233.628906 -18.617188 232.3125 -14.953125 230.09375 -10.796875 C 226.5 -3.597656 215.84375 0 198.125 0 C 181.226562 0 170.703125 -3.597656 166.546875 -10.796875 C 164.335938 -14.953125 163.023438 -18.691406 162.609375 -22.015625 C 162.191406 -25.335938 161.984375 -30.320312 161.984375 -36.96875 L 161.984375 -109.65625 C 161.984375 -121.007812 158.796875 -129.867188 152.421875 -136.234375 C 146.054688 -142.597656 137.957031 -145.78125 128.125 -145.78125 C 118.300781 -145.78125 109.648438 -142.800781 102.171875 -136.84375 C 94.691406 -130.894531 90.398438 -124.1875 89.296875 -116.71875 L 89.296875 -36.140625 C 89.296875 -29.765625 89.085938 -24.984375 88.671875 -21.796875 C 88.253906 -18.617188 86.941406 -14.953125 84.734375 -10.796875 C 81.128906 -3.597656 70.46875 0 52.75 0 C 35.300781 0 24.640625 -3.738281 20.765625 -11.21875 C 18.828125 -15.363281 17.648438 -18.957031 17.234375 -22 C 16.816406 -25.050781 16.609375 -29.898438 16.609375 -36.546875 L 16.609375 -284.921875 C 16.609375 -291.296875 16.816406 -296.070312 17.234375 -299.25 C 17.648438 -302.4375 18.828125 -305.96875 20.765625 -309.84375 C 24.640625 -317.320312 35.4375 -321.0625 53.15625 -321.0625 C 70.601562 -321.0625 81.128906 -317.320312 84.734375 -309.84375 C 86.941406 -305.6875 88.253906 -302.015625 88.671875 -298.828125 C 89.085938 -295.648438 89.296875 -290.878906 89.296875 -284.515625 L 89.296875 -192.71875 C 103.140625 -209.613281 119.335938 -218.0625 137.890625 -218.0625 Z M 137.890625 -218.0625 "/></g></g></g><g fill="rgb(88.62915%, 93.728638%, 95.689392%)" fill-opacity="1"><g transform="translate(567.316438, 327.757332)"><g><path d="M 227.609375 -135.609375 C 227.609375 -118.578125 223.382812 -105.976562 214.9375 -97.8125 C 206.488281 -89.644531 197.144531 -85.5625 186.90625 -85.5625 L 88.46875 -85.5625 C 88.46875 -77.8125 93.035156 -71.300781 102.171875 -66.03125 C 111.304688 -60.769531 120.445312 -58.140625 129.59375 -58.140625 C 145.644531 -58.140625 158.242188 -59.800781 167.390625 -63.125 L 171.953125 -64.796875 C 178.597656 -67.835938 184.132812 -69.359375 188.5625 -69.359375 C 197.425781 -69.359375 205.039062 -63.128906 211.40625 -50.671875 C 215.007812 -43.191406 216.8125 -36.820312 216.8125 -31.5625 C 216.8125 -6.914062 187.320312 5.40625 128.34375 5.40625 C 107.851562 5.40625 89.644531 1.875 73.71875 -5.1875 C 57.800781 -12.25 45.410156 -21.597656 36.546875 -33.234375 C 19.109375 -55.660156 10.390625 -80.71875 10.390625 -108.40625 C 10.390625 -143.289062 21.671875 -171.1875 44.234375 -192.09375 C 66.796875 -213 94.96875 -223.453125 128.75 -223.453125 C 167.238281 -223.453125 195.484375 -209.882812 213.484375 -182.75 C 222.898438 -168.351562 227.609375 -152.640625 227.609375 -135.609375 Z M 139.96875 -123.359375 C 150.488281 -123.359375 155.75 -127.785156 155.75 -136.640625 C 155.75 -143.015625 153.328125 -148.140625 148.484375 -152.015625 C 143.640625 -155.890625 136.71875 -157.828125 127.71875 -157.828125 C 118.71875 -157.828125 109.785156 -154.15625 100.921875 -146.8125 C 92.066406 -139.476562 87.640625 -131.660156 87.640625 -123.359375 Z M 139.96875 -123.359375 "/></g></g></g><g fill="rgb(88.62915%, 93.728638%, 95.689392%)" fill-opacity="1"><g transform="translate(0.0000325, 691.352989)"><g><path d="M 218.0625 -304.453125 C 224.425781 -304.453125 229.195312 -304.242188 232.375 -303.828125 C 235.5625 -303.410156 239.160156 -302.09375 243.171875 -299.875 C 247.191406 -297.664062 250.03125 -293.925781 251.6875 -288.65625 C 253.351562 -283.394531 254.1875 -276.332031 254.1875 -267.46875 C 254.1875 -258.613281 253.351562 -251.554688 251.6875 -246.296875 C 250.03125 -241.035156 247.125 -237.363281 242.96875 -235.28125 C 238.820312 -233.207031 235.15625 -231.960938 231.96875 -231.546875 C 228.78125 -231.140625 223.863281 -230.9375 217.21875 -230.9375 L 90.125 -230.9375 L 90.125 -188.984375 L 171.953125 -188.984375 C 178.597656 -188.984375 183.507812 -188.773438 186.6875 -188.359375 C 189.875 -187.941406 193.546875 -186.625 197.703125 -184.40625 C 204.898438 -180.257812 208.5 -169.320312 208.5 -151.59375 C 208.5 -132.21875 203.238281 -120.726562 192.71875 -117.125 C 188.289062 -115.738281 181.226562 -115.046875 171.53125 -115.046875 L 90.125 -115.046875 L 90.125 -36.546875 C 90.125 -29.898438 89.914062 -25.050781 89.5 -22 C 89.09375 -18.957031 87.78125 -15.363281 85.5625 -11.21875 C 81.6875 -3.738281 70.882812 0 53.15625 0 C 33.78125 0 22.429688 -5.257812 19.109375 -15.78125 C 17.441406 -20.207031 16.609375 -27.269531 16.609375 -36.96875 L 16.609375 -267.890625 C 16.609375 -282.015625 19.238281 -291.640625 24.5 -296.765625 C 29.757812 -301.890625 39.726562 -304.453125 54.40625 -304.453125 Z M 218.0625 -304.453125 "/></g></g></g><g fill="rgb(88.62915%, 93.728638%, 95.689392%)" fill-opacity="1"><g transform="translate(270.783596, 691.352989)"><g><path d="M 16.609375 -182.328125 C 16.609375 -188.703125 16.816406 -193.476562 17.234375 -196.65625 C 17.648438 -199.84375 18.828125 -203.515625 20.765625 -207.671875 C 24.640625 -214.867188 35.4375 -218.46875 53.15625 -218.46875 C 66.445312 -218.46875 75.863281 -216.113281 81.40625 -211.40625 C 86.113281 -207.53125 88.609375 -201.578125 88.890625 -193.546875 C 89.160156 -190.773438 89.296875 -186.757812 89.296875 -181.5 L 89.296875 -36.140625 C 89.296875 -29.765625 89.085938 -24.984375 88.671875 -21.796875 C 88.253906 -18.617188 86.941406 -14.953125 84.734375 -10.796875 C 81.128906 -3.597656 70.46875 0 52.75 0 C 35.300781 0 24.640625 -3.738281 20.765625 -11.21875 C 18.828125 -15.363281 17.648438 -18.957031 17.234375 -22 C 16.816406 -25.050781 16.609375 -29.898438 16.609375 -36.546875 Z M 84.9375 -259.375 C 82.863281 -255.363281 79.195312 -252.523438 73.9375 -250.859375 C 68.675781 -249.203125 61.679688 -248.375 52.953125 -248.375 C 44.234375 -248.375 37.242188 -249.203125 31.984375 -250.859375 C 26.722656 -252.523438 23.050781 -255.429688 20.96875 -259.578125 C 18.894531 -263.734375 17.648438 -267.40625 17.234375 -270.59375 C 16.816406 -273.78125 16.609375 -278.554688 16.609375 -284.921875 C 16.609375 -291.296875 16.816406 -296.070312 17.234375 -299.25 C 17.648438 -302.4375 18.828125 -305.96875 20.765625 -309.84375 C 24.640625 -317.320312 35.4375 -321.0625 53.15625 -321.0625 C 70.601562 -321.0625 81.128906 -317.320312 84.734375 -309.84375 C 86.941406 -305.6875 88.253906 -302.015625 88.671875 -298.828125 C 89.085938 -295.648438 89.296875 -290.875 89.296875 -284.5 C 89.296875 -278.132812 89.085938 -273.359375 88.671875 -270.171875 C 88.253906 -266.992188 87.007812 -263.394531 84.9375 -259.375 Z M 84.9375 -259.375 "/></g></g></g><g fill="rgb(88.62915%, 93.728638%, 95.689392%)" fill-opacity="1"><g transform="translate(382.918165, 691.352989)"><g><path d="M 165.3125 -216.390625 C 170.570312 -214.734375 174.929688 -211.894531 178.390625 -207.875 C 181.847656 -203.863281 183.578125 -197.425781 183.578125 -188.5625 C 183.578125 -179.707031 180.945312 -170.015625 175.6875 -159.484375 C 170.425781 -148.960938 162.8125 -143.703125 152.84375 -143.703125 C 147.863281 -143.703125 143.085938 -144.8125 138.515625 -147.03125 C 133.941406 -149.25 127.914062 -150.359375 120.4375 -150.359375 C 112.96875 -150.359375 105.976562 -147.726562 99.46875 -142.46875 C 92.96875 -137.207031 89.71875 -130.835938 89.71875 -123.359375 L 89.71875 -36.140625 C 89.71875 -29.765625 89.507812 -24.984375 89.09375 -21.796875 C 88.675781 -18.617188 87.359375 -14.953125 85.140625 -10.796875 C 80.992188 -3.597656 70.195312 0 52.75 0 C 39.457031 0 29.90625 -2.351562 24.09375 -7.0625 C 19.65625 -10.9375 17.160156 -16.890625 16.609375 -24.921875 C 16.609375 -27.691406 16.609375 -31.707031 16.609375 -36.96875 L 16.609375 -182.75 C 16.609375 -189.113281 16.816406 -193.890625 17.234375 -197.078125 C 17.648438 -200.265625 18.828125 -203.796875 20.765625 -207.671875 C 24.640625 -215.148438 35.4375 -218.890625 53.15625 -218.890625 C 69.769531 -218.890625 80.15625 -215.703125 84.3125 -209.328125 C 87.363281 -204.898438 88.890625 -200.332031 88.890625 -195.625 C 90.265625 -197.5625 92.269531 -199.914062 94.90625 -202.6875 C 97.539062 -205.457031 103.148438 -209.195312 111.734375 -213.90625 C 120.316406 -218.613281 127.859375 -220.96875 134.359375 -220.96875 C 140.867188 -220.96875 146.335938 -220.617188 150.765625 -219.921875 C 155.203125 -219.234375 160.050781 -218.054688 165.3125 -216.390625 Z M 165.3125 -216.390625 "/></g></g></g><g fill="rgb(88.62915%, 93.728638%, 95.689392%)" fill-opacity="1"><g transform="translate(578.945647, 691.352989)"><g><path d="M 18.28125 -19.515625 C 13.019531 -22.835938 10.390625 -28.097656 10.390625 -35.296875 C 10.390625 -42.503906 15.648438 -53.441406 26.171875 -68.109375 C 29.210938 -72.816406 34.125 -75.171875 40.90625 -75.171875 C 47.695312 -75.171875 56.90625 -71.78125 68.53125 -65 C 80.15625 -58.21875 90.675781 -54.828125 100.09375 -54.828125 C 116.988281 -54.828125 125.4375 -58.148438 125.4375 -64.796875 C 125.4375 -70.054688 116.160156 -73.929688 97.609375 -76.421875 C 80.160156 -78.910156 62.851562 -85.414062 45.6875 -95.9375 C 37.65625 -100.925781 31.007812 -108.75 25.75 -119.40625 C 20.488281 -130.070312 17.859375 -142.742188 17.859375 -157.421875 C 17.859375 -201.171875 47.898438 -223.046875 107.984375 -223.046875 C 127.648438 -223.046875 147.863281 -218.335938 168.625 -208.921875 C 178.320312 -204.484375 183.171875 -198.941406 183.171875 -192.296875 C 183.171875 -185.648438 180.125 -177.484375 174.03125 -167.796875 C 167.9375 -158.109375 161.707031 -153.265625 155.34375 -153.265625 C 152.019531 -153.265625 145.859375 -155.335938 136.859375 -159.484375 C 127.859375 -163.640625 118.097656 -165.71875 107.578125 -165.71875 C 91.234375 -165.71875 83.0625 -162.671875 83.0625 -156.578125 C 83.0625 -148.273438 92.476562 -142.878906 111.3125 -140.390625 C 129.582031 -138.453125 147.300781 -133.191406 164.46875 -124.609375 C 172.5 -120.722656 179.210938 -114.003906 184.609375 -104.453125 C 190.015625 -94.898438 192.71875 -82.925781 192.71875 -68.53125 C 192.71875 -54.132812 190.015625 -41.878906 184.609375 -31.765625 C 179.210938 -21.660156 171.671875 -14.117188 161.984375 -9.140625 C 144.265625 -0.554688 122.039062 3.734375 95.3125 3.734375 C 68.59375 3.734375 42.914062 -4.015625 18.28125 -19.515625 Z M 18.28125 -19.515625 "/></g></g></g><g fill="rgb(88.62915%, 93.728638%, 95.689392%)" fill-opacity="1"><g transform="translate(788.263114, 691.352989)"><g><path d="M 143.703125 -145.375 L 116.71875 -147.03125 L 116.71875 -89.71875 C 116.71875 -82.238281 117.890625 -76.835938 120.234375 -73.515625 C 122.585938 -70.191406 127.019531 -68.53125 133.53125 -68.53125 C 140.039062 -68.53125 145.023438 -68.320312 148.484375 -67.90625 C 151.941406 -67.488281 155.609375 -66.175781 159.484375 -63.96875 C 165.859375 -60.363281 169.046875 -51.085938 169.046875 -36.140625 C 169.046875 -18.691406 165.171875 -8.03125 157.421875 -4.15625 C 153.265625 -2.21875 149.59375 -1.039062 146.40625 -0.625 C 143.21875 -0.207031 138.582031 0 132.5 0 C 103.695312 0 81.816406 -6.503906 66.859375 -19.515625 C 51.910156 -32.535156 44.4375 -54.550781 44.4375 -85.5625 L 44.4375 -147.03125 C 39.175781 -146.195312 33.5 -145.78125 27.40625 -145.78125 C 21.320312 -145.78125 16.269531 -148.132812 12.25 -152.84375 C 8.238281 -157.550781 6.234375 -165.582031 6.234375 -176.9375 C 6.234375 -188.289062 6.925781 -196.523438 8.3125 -201.640625 C 9.695312 -206.765625 11.632812 -210.4375 14.125 -212.65625 C 18.550781 -216.257812 24.085938 -218.0625 30.734375 -218.0625 L 44.4375 -216.390625 L 44.4375 -259.171875 C 44.4375 -265.546875 44.644531 -270.253906 45.0625 -273.296875 C 45.476562 -276.335938 46.796875 -279.660156 49.015625 -283.265625 C 52.609375 -290.179688 63.265625 -293.640625 80.984375 -293.640625 C 99.816406 -293.640625 111.035156 -288.519531 114.640625 -278.28125 C 116.023438 -273.851562 116.71875 -266.789062 116.71875 -257.09375 L 116.71875 -216.390625 C 128.894531 -217.503906 138.097656 -218.0625 144.328125 -218.0625 C 150.554688 -218.0625 155.265625 -217.851562 158.453125 -217.4375 C 161.640625 -217.019531 165.304688 -215.703125 169.453125 -213.484375 C 176.660156 -209.890625 180.265625 -199.226562 180.265625 -181.5 C 180.265625 -164.0625 176.523438 -153.40625 169.046875 -149.53125 C 164.890625 -147.582031 161.21875 -146.398438 158.03125 -145.984375 C 154.851562 -145.578125 150.078125 -145.375 143.703125 -145.375 Z M 143.703125 -145.375 "/></g></g></g><g fill="rgb(88.62915%, 93.728638%, 95.689392%)" fill-opacity="1"><g transform="translate(0.0000325, 1054.948646)"><g><path d="M 206.84375 -79.75 L 214.3125 -85.140625 C 223.726562 -90.679688 230.375 -93.453125 234.25 -93.453125 C 242.832031 -93.453125 252.109375 -85.695312 262.078125 -70.1875 C 268.171875 -60.5 271.21875 -52.75 271.21875 -46.9375 C 271.21875 -41.125 269.347656 -36.273438 265.609375 -32.390625 C 261.867188 -28.515625 257.503906 -25.050781 252.515625 -22 C 247.535156 -18.957031 242.757812 -16.050781 238.1875 -13.28125 C 233.625 -10.519531 224.28125 -6.921875 210.15625 -2.484375 C 196.039062 1.941406 182.40625 4.15625 169.25 4.15625 C 156.101562 4.15625 142.8125 2.425781 129.375 -1.03125 C 115.945312 -4.5 102.101562 -10.316406 87.84375 -18.484375 C 73.582031 -26.648438 60.773438 -36.617188 49.421875 -48.390625 C 38.066406 -60.160156 28.722656 -75.25 21.390625 -93.65625 C 14.054688 -112.070312 10.390625 -132.078125 10.390625 -153.671875 C 10.390625 -175.273438 13.988281 -194.867188 21.1875 -212.453125 C 28.382812 -230.035156 37.585938 -244.570312 48.796875 -256.0625 C 60.015625 -267.550781 72.820312 -277.171875 87.21875 -284.921875 C 114.351562 -299.878906 141.628906 -307.359375 169.046875 -307.359375 C 182.054688 -307.359375 195.273438 -305.347656 208.703125 -301.328125 C 222.140625 -297.316406 232.316406 -293.234375 239.234375 -289.078125 L 249.203125 -283.265625 C 254.191406 -280.222656 258.066406 -277.726562 260.828125 -275.78125 C 268.035156 -269.96875 271.640625 -263.390625 271.640625 -256.046875 C 271.640625 -248.710938 268.726562 -241.035156 262.90625 -233.015625 C 252.113281 -218.054688 242.425781 -210.578125 233.84375 -210.578125 C 228.851562 -210.578125 221.789062 -213.625 212.65625 -219.71875 C 201.03125 -229.132812 185.523438 -233.84375 166.140625 -233.84375 C 148.140625 -233.84375 130.414062 -227.609375 112.96875 -215.140625 C 104.664062 -209.054688 97.742188 -200.472656 92.203125 -189.390625 C 86.671875 -178.316406 83.90625 -165.785156 83.90625 -151.796875 C 83.90625 -137.816406 86.671875 -125.289062 92.203125 -114.21875 C 97.742188 -103.144531 104.804688 -94.421875 113.390625 -88.046875 C 130.273438 -75.867188 147.859375 -69.78125 166.140625 -69.78125 C 174.722656 -69.78125 182.820312 -70.882812 190.4375 -73.09375 C 198.050781 -75.3125 203.519531 -77.53125 206.84375 -79.75 Z M 206.84375 -79.75 "/></g></g></g><g fill="rgb(88.62915%, 93.728638%, 95.689392%)" fill-opacity="1"><g transform="translate(288.226651, 1054.948646)"><g><path d="M 10.390625 -109.234375 C 10.390625 -142.460938 22.015625 -169.875 45.265625 -191.46875 C 68.523438 -213.070312 95.109375 -223.875 125.015625 -223.875 C 154.921875 -223.875 181.363281 -213.140625 204.34375 -191.671875 C 227.332031 -170.210938 238.828125 -142.875 238.828125 -109.65625 C 238.828125 -86.664062 232.875 -66.238281 220.96875 -48.375 C 209.0625 -30.519531 194.59375 -17.367188 177.5625 -8.921875 C 160.53125 -0.484375 142.875 3.734375 124.59375 3.734375 C 106.320312 3.734375 88.601562 -0.765625 71.4375 -9.765625 C 54.269531 -18.765625 39.800781 -32.054688 28.03125 -49.640625 C 16.269531 -67.222656 10.390625 -87.085938 10.390625 -109.234375 Z M 97.1875 -79.53125 C 106.050781 -72.75 115.050781 -69.359375 124.1875 -69.359375 C 133.320312 -69.359375 142.457031 -72.816406 151.59375 -79.734375 C 160.738281 -86.660156 165.3125 -96.90625 165.3125 -110.46875 C 165.3125 -124.039062 161.019531 -134.148438 152.4375 -140.796875 C 143.851562 -147.441406 134.578125 -150.765625 124.609375 -150.765625 C 114.640625 -150.765625 105.363281 -147.300781 96.78125 -140.375 C 88.195312 -133.457031 83.90625 -123.285156 83.90625 -109.859375 C 83.90625 -96.429688 88.332031 -86.320312 97.1875 -79.53125 Z M 97.1875 -79.53125 "/></g></g></g><g fill="rgb(88.62915%, 93.728638%, 95.689392%)" fill-opacity="1"><g transform="translate(543.643704, 1054.948646)"><g><path d="M 10.390625 -109.234375 C 10.390625 -142.460938 22.015625 -169.875 45.265625 -191.46875 C 68.523438 -213.070312 95.109375 -223.875 125.015625 -223.875 C 154.921875 -223.875 181.363281 -213.140625 204.34375 -191.671875 C 227.332031 -170.210938 238.828125 -142.875 238.828125 -109.65625 C 238.828125 -86.664062 232.875 -66.238281 220.96875 -48.375 C 209.0625 -30.519531 194.59375 -17.367188 177.5625 -8.921875 C 160.53125 -0.484375 142.875 3.734375 124.59375 3.734375 C 106.320312 3.734375 88.601562 -0.765625 71.4375 -9.765625 C 54.269531 -18.765625 39.800781 -32.054688 28.03125 -49.640625 C 16.269531 -67.222656 10.390625 -87.085938 10.390625 -109.234375 Z M 97.1875 -79.53125 C 106.050781 -72.75 115.050781 -69.359375 124.1875 -69.359375 C 133.320312 -69.359375 142.457031 -72.816406 151.59375 -79.734375 C 160.738281 -86.660156 165.3125 -96.90625 165.3125 -110.46875 C 165.3125 -124.039062 161.019531 -134.148438 152.4375 -140.796875 C 143.851562 -147.441406 134.578125 -150.765625 124.609375 -150.765625 C 114.640625 -150.765625 105.363281 -147.300781 96.78125 -140.375 C 88.195312 -133.457031 83.90625 -123.285156 83.90625 -109.859375 C 83.90625 -96.429688 88.332031 -86.320312 97.1875 -79.53125 Z M 97.1875 -79.53125 "/></g></g></g><g fill="rgb(88.62915%, 93.728638%, 95.689392%)" fill-opacity="1"><g transform="translate(799.060721, 1054.948646)"><g><path d="M 16.609375 -285.34375 C 16.609375 -291.707031 16.816406 -296.484375 17.234375 -299.671875 C 17.648438 -302.859375 18.828125 -306.523438 20.765625 -310.671875 C 24.640625 -318.148438 35.4375 -321.890625 53.15625 -321.890625 C 70.050781 -321.890625 80.578125 -318.148438 84.734375 -310.671875 C 86.941406 -306.523438 88.253906 -302.789062 88.671875 -299.46875 C 89.085938 -296.144531 89.296875 -291.296875 89.296875 -284.921875 L 89.296875 -92.625 C 89.296875 -82.65625 90.125 -76.351562 91.78125 -73.71875 C 93.445312 -71.09375 97.117188 -69.78125 102.796875 -69.78125 C 108.472656 -69.78125 112.28125 -69.570312 114.21875 -69.15625 C 116.15625 -68.738281 118.507812 -67.5625 121.28125 -65.625 C 126.820312 -62.019531 129.59375 -52.191406 129.59375 -36.140625 C 129.59375 -18.691406 126.820312 -8.03125 121.28125 -4.15625 C 114.082031 0.832031 96.914062 1.664062 69.78125 -1.65625 C 48.457031 -4.425781 34.613281 -11.488281 28.25 -22.84375 C 20.488281 -36.414062 16.609375 -58.015625 16.609375 -87.640625 Z M 16.609375 -285.34375 "/></g></g></g><g fill="rgb(88.62915%, 93.728638%, 95.689392%)" fill-opacity="1"><g transform="translate(0.0000325, 1418.544303)"><g><path d="M 233.421875 -163.234375 C 249.753906 -143.847656 257.921875 -122.109375 257.921875 -98.015625 C 257.367188 -70.328125 247.882812 -47.140625 229.46875 -28.453125 C 211.0625 -9.765625 188.707031 -0.421875 162.40625 -0.421875 L 53.15625 -0.421875 C 33.78125 -0.421875 22.429688 -5.679688 19.109375 -16.203125 C 17.441406 -20.910156 16.609375 -28.109375 16.609375 -37.796875 L 16.609375 -268.3125 C 16.609375 -274.957031 16.816406 -279.800781 17.234375 -282.84375 C 17.648438 -285.894531 18.96875 -289.492188 21.1875 -293.640625 C 25.0625 -301.117188 35.859375 -304.859375 53.578125 -304.859375 L 158.25 -304.859375 C 183.71875 -304.859375 205.035156 -296 222.203125 -278.28125 C 240.203125 -260.28125 249.203125 -238.679688 249.203125 -213.484375 C 249.203125 -195.210938 243.941406 -178.460938 233.421875 -163.234375 Z M 184.40625 -102.171875 C 184.40625 -108.816406 183.644531 -114.078125 182.125 -117.953125 C 180.601562 -121.828125 178.039062 -124.597656 174.4375 -126.265625 C 168.90625 -128.484375 161.15625 -129.59375 151.1875 -129.59375 C 141.21875 -129.59375 133.738281 -131.53125 128.75 -135.40625 C 123.769531 -139.28125 121.28125 -147.238281 121.28125 -159.28125 C 121.28125 -171.332031 123.835938 -179.296875 128.953125 -183.171875 C 134.078125 -187.046875 142.597656 -188.984375 154.515625 -188.984375 C 165.585938 -188.984375 172.226562 -191.890625 174.4375 -197.703125 C 175.269531 -200.742188 175.6875 -205.726562 175.6875 -212.65625 C 175.6875 -219.582031 173.398438 -224.425781 168.828125 -227.1875 C 164.265625 -229.957031 157.414062 -231.34375 148.28125 -231.34375 L 90.125 -231.34375 L 90.125 -73.9375 L 158.25 -73.9375 C 175.6875 -73.9375 184.40625 -83.347656 184.40625 -102.171875 Z M 184.40625 -102.171875 "/></g></g></g><g fill="rgb(88.62915%, 93.728638%, 95.689392%)" fill-opacity="1"><g transform="translate(274.521388, 1418.544303)"><g><path d="M 158.65625 -195.625 C 160.320312 -211.132812 171.257812 -218.890625 191.46875 -218.890625 C 202.269531 -218.890625 210.300781 -218.054688 215.5625 -216.390625 C 220.820312 -214.734375 224.488281 -211.828125 226.5625 -207.671875 C 228.644531 -203.515625 229.894531 -199.84375 230.3125 -196.65625 C 230.726562 -193.476562 230.9375 -188.703125 230.9375 -182.328125 L 230.9375 -36.96875 C 230.9375 -30.59375 230.726562 -25.8125 230.3125 -22.625 C 229.894531 -19.445312 228.71875 -15.78125 226.78125 -11.625 C 222.90625 -4.425781 213.421875 -0.828125 198.328125 -0.828125 C 183.234375 -0.828125 173.125 -2.695312 168 -6.4375 C 162.882812 -10.175781 159.910156 -15.644531 159.078125 -22.84375 C 148.828125 -8.164062 131.726562 -0.828125 107.78125 -0.828125 C 83.832031 -0.828125 61.613281 -11.765625 41.125 -33.640625 C 20.632812 -55.515625 10.390625 -80.921875 10.390625 -109.859375 C 10.390625 -138.796875 20.703125 -164.128906 41.328125 -185.859375 C 61.953125 -207.597656 84.585938 -218.46875 109.234375 -218.46875 C 118.648438 -218.46875 127.234375 -216.804688 134.984375 -213.484375 C 142.734375 -210.160156 148.128906 -207.046875 151.171875 -204.140625 C 154.222656 -201.234375 156.71875 -198.394531 158.65625 -195.625 Z M 83.0625 -109.234375 C 83.0625 -100.097656 86.660156 -91.859375 93.859375 -84.515625 C 101.066406 -77.179688 109.789062 -73.515625 120.03125 -73.515625 C 130.28125 -73.515625 138.796875 -77.25 145.578125 -84.71875 C 152.359375 -92.195312 155.75 -100.4375 155.75 -109.4375 C 155.75 -118.4375 152.492188 -126.8125 145.984375 -134.5625 C 139.484375 -142.320312 130.765625 -146.203125 119.828125 -146.203125 C 108.890625 -146.203125 100.023438 -142.320312 93.234375 -134.5625 C 86.453125 -126.8125 83.0625 -118.367188 83.0625 -109.234375 Z M 83.0625 -109.234375 "/></g></g></g><g fill="rgb(88.62915%, 93.728638%, 95.689392%)" fill-opacity="1"><g transform="translate(528.277175, 1418.544303)"><g><path d="M 138.3125 -218.890625 C 166 -218.890625 189.046875 -208.296875 207.453125 -187.109375 C 225.867188 -165.929688 235.078125 -140.113281 235.078125 -109.65625 L 235.078125 -36.546875 C 235.078125 -30.179688 234.867188 -25.40625 234.453125 -22.21875 C 234.046875 -19.03125 232.875 -15.5 230.9375 -11.625 C 227.050781 -4.15625 216.25 -0.421875 198.53125 -0.421875 C 178.875 -0.421875 167.519531 -5.539062 164.46875 -15.78125 C 162.8125 -20.488281 161.984375 -27.550781 161.984375 -36.96875 L 161.984375 -110.0625 C 161.984375 -121.414062 158.726562 -130.273438 152.21875 -136.640625 C 145.71875 -143.015625 137 -146.203125 126.0625 -146.203125 C 115.125 -146.203125 106.257812 -142.878906 99.46875 -136.234375 C 92.6875 -129.585938 89.296875 -120.863281 89.296875 -110.0625 L 89.296875 -36.546875 C 89.296875 -30.179688 89.085938 -25.40625 88.671875 -22.21875 C 88.253906 -19.03125 86.941406 -15.5 84.734375 -11.625 C 81.128906 -4.15625 70.46875 -0.421875 52.75 -0.421875 C 35.300781 -0.421875 24.640625 -4.15625 20.765625 -11.625 C 18.828125 -15.78125 17.648438 -19.445312 17.234375 -22.625 C 16.816406 -25.8125 16.609375 -30.59375 16.609375 -36.96875 L 16.609375 -184 C 16.609375 -190.09375 16.816406 -194.726562 17.234375 -197.90625 C 17.648438 -201.09375 18.96875 -204.625 21.1875 -208.5 C 25.0625 -215.425781 35.71875 -218.890625 53.15625 -218.890625 C 70.050781 -218.890625 80.4375 -215.703125 84.3125 -209.328125 C 87.082031 -204.617188 88.46875 -198.941406 88.46875 -192.296875 C 89.570312 -194.242188 92.0625 -197.015625 95.9375 -200.609375 C 99.820312 -204.210938 103.5625 -207.117188 107.15625 -209.328125 C 116.570312 -215.703125 126.957031 -218.890625 138.3125 -218.890625 Z M 138.3125 -218.890625 "/></g></g></g><g fill="rgb(88.62915%, 93.728638%, 95.689392%)" fill-opacity="1"><g transform="translate(786.186066, 1418.544303)"><g><path d="M 145.375 -109.65625 L 200.609375 -63.96875 C 207.535156 -58.144531 211.894531 -53.710938 213.6875 -50.671875 C 215.488281 -47.628906 216.390625 -44.722656 216.390625 -41.953125 C 216.390625 -35.304688 212.097656 -26.304688 203.515625 -14.953125 C 194.097656 -3.328125 185.789062 2.484375 178.59375 2.484375 C 172.5 2.484375 164.054688 -1.523438 153.265625 -9.546875 L 149.109375 -12.453125 C 142.742188 -17.722656 132.914062 -26.929688 119.625 -40.078125 C 106.332031 -53.234375 96.222656 -62.578125 89.296875 -68.109375 L 89.296875 -36.140625 C 89.296875 -29.765625 89.085938 -24.984375 88.671875 -21.796875 C 88.253906 -18.617188 86.941406 -14.953125 84.734375 -10.796875 C 81.128906 -3.597656 70.46875 0 52.75 0 C 35.300781 0 24.640625 -3.738281 20.765625 -11.21875 C 18.828125 -15.363281 17.648438 -19.03125 17.234375 -22.21875 C 16.816406 -25.40625 16.609375 -30.179688 16.609375 -36.546875 L 16.609375 -285.34375 C 16.609375 -291.707031 16.816406 -296.484375 17.234375 -299.671875 C 17.648438 -302.859375 18.828125 -306.523438 20.765625 -310.671875 C 24.640625 -318.148438 35.4375 -321.890625 53.15625 -321.890625 C 66.445312 -321.890625 75.863281 -319.535156 81.40625 -314.828125 C 86.113281 -310.953125 88.609375 -304.863281 88.890625 -296.5625 C 89.160156 -294.0625 89.296875 -290.179688 89.296875 -284.921875 L 89.296875 -153.265625 C 94.285156 -157.410156 101.832031 -164.46875 111.9375 -174.4375 C 122.039062 -184.40625 129.585938 -191.46875 134.578125 -195.625 L 139.5625 -198.953125 C 149.25 -206.421875 157.550781 -210.15625 164.46875 -210.15625 C 171.394531 -210.15625 179.359375 -204.546875 188.359375 -193.328125 C 197.359375 -182.117188 201.859375 -173.332031 201.859375 -166.96875 C 201.859375 -160.601562 196.734375 -153.128906 186.484375 -144.546875 Z M 145.375 -109.65625 "/></g></g></g></svg>