<svg xmlns="http://www.w3.org/2000/svg" xmlns:xlink="http://www.w3.org/1999/xlink" width="1920" zoomAndPan="magnify" viewBox="0 0 1440 540.000001" height="720" preserveAspectRatio="xMidYMid meet" version="1.0"><defs><g/></defs><g fill="rgb(100%, 100%, 100%)" fill-opacity="1"><g transform="translate(381.688983, 444.063102)"><g><path d="M 46.710938 -79.851562 C 45.515625 -79.851562 44.816406 -79.25 44.515625 -78.054688 L 33.4375 -28.347656 L 22.359375 -78.054688 C 22.058594 -79.25 21.359375 -79.851562 20.164062 -79.851562 L 6.988281 -79.851562 C 5.6875 -79.851562 4.992188 -79.152344 4.992188 -77.855469 L 4.992188 -1.996094 C 4.992188 -0.699219 5.6875 0 6.988281 0 L 16.167969 0 C 17.46875 0 18.164062 -0.699219 18.164062 -1.996094 L 18.164062 -46.910156 L 18.863281 -46.910156 L 28.746094 -1.796875 C 29.046875 -0.597656 29.746094 0 30.941406 0 L 35.832031 0 C 37.03125 0 37.730469 -0.597656 38.027344 -1.796875 L 47.910156 -46.910156 L 48.609375 -46.910156 L 48.609375 -1.996094 C 48.609375 -0.699219 49.308594 0 50.605469 0 L 59.886719 0 C 61.183594 0 61.882812 -0.699219 61.882812 -1.996094 L 61.882812 -77.855469 C 61.882812 -79.152344 61.183594 -79.851562 59.886719 -79.851562 Z M 46.710938 -79.851562 "/></g></g></g><g fill="rgb(100%, 100%, 100%)" fill-opacity="1"><g transform="translate(450.558857, 444.063102)"><g><path d="M 44.816406 -68.273438 C 44.816406 -69.269531 44.417969 -69.867188 43.21875 -69.867188 L 6.488281 -69.867188 C 5.589844 -69.867188 4.992188 -69.269531 4.992188 -68.273438 L 4.992188 -1.597656 C 4.992188 -0.597656 5.589844 0 6.488281 0 L 43.21875 0 C 44.417969 0 44.816406 -0.597656 44.816406 -1.597656 L 44.816406 -11.578125 C 44.816406 -12.675781 44.417969 -13.175781 43.21875 -13.175781 L 18.566406 -13.175781 L 18.566406 -27.949219 L 37.328125 -27.949219 C 38.328125 -27.949219 38.925781 -28.546875 38.925781 -29.644531 L 38.925781 -39.527344 C 38.925781 -40.625 38.328125 -41.222656 37.328125 -41.222656 L 18.566406 -41.222656 L 18.566406 -56.59375 L 43.21875 -56.59375 C 44.417969 -56.59375 44.816406 -57.292969 44.816406 -58.289062 Z M 44.816406 -68.273438 "/></g></g></g><g fill="rgb(100%, 100%, 100%)" fill-opacity="1"><g transform="translate(502.361, 444.063102)"><g><path d="M 44.816406 -68.273438 C 44.816406 -69.269531 44.417969 -69.867188 43.21875 -69.867188 L 6.488281 -69.867188 C 5.589844 -69.867188 4.992188 -69.269531 4.992188 -68.273438 L 4.992188 -1.597656 C 4.992188 -0.597656 5.589844 0 6.488281 0 L 43.21875 0 C 44.417969 0 44.816406 -0.597656 44.816406 -1.597656 L 44.816406 -11.578125 C 44.816406 -12.675781 44.417969 -13.175781 43.21875 -13.175781 L 18.566406 -13.175781 L 18.566406 -27.949219 L 37.328125 -27.949219 C 38.328125 -27.949219 38.925781 -28.546875 38.925781 -29.644531 L 38.925781 -39.527344 C 38.925781 -40.625 38.328125 -41.222656 37.328125 -41.222656 L 18.566406 -41.222656 L 18.566406 -56.59375 L 43.21875 -56.59375 C 44.417969 -56.59375 44.816406 -57.292969 44.816406 -58.289062 Z M 44.816406 -68.273438 "/></g></g></g><g fill="rgb(100%, 100%, 100%)" fill-opacity="1"><g transform="translate(554.163143, 444.063102)"><g><path d="M 41.324219 -69.867188 C 42.421875 -69.867188 42.917969 -69.269531 42.917969 -68.273438 L 42.917969 -58.289062 C 42.917969 -57.292969 42.421875 -56.695312 41.324219 -56.695312 L 29.746094 -56.695312 L 29.746094 -1.597656 C 29.746094 -0.5 29.246094 0 28.148438 0 L 17.765625 0 C 16.769531 0 16.167969 -0.5 16.167969 -1.597656 L 16.167969 -56.695312 L 4.589844 -56.695312 C 3.59375 -56.695312 2.996094 -57.292969 2.996094 -58.289062 L 2.996094 -68.273438 C 2.996094 -69.269531 3.59375 -69.867188 4.589844 -69.867188 Z M 41.324219 -69.867188 "/></g></g></g><g fill="rgb(100%, 100%, 100%)" fill-opacity="1"><g transform="translate(602.072657, 444.063102)"><g/></g></g><g fill="rgb(100%, 100%, 100%)" fill-opacity="1"><g transform="translate(629.021789, 444.063102)"><g><path d="M 4.589844 -79.851562 C 3.59375 -79.851562 2.996094 -79.25 2.996094 -78.253906 L 2.996094 -68.273438 C 2.996094 -67.273438 3.59375 -66.675781 4.589844 -66.675781 L 16.167969 -66.675781 L 16.167969 -1.597656 C 16.167969 -0.5 16.769531 0 17.765625 0 L 28.148438 0 C 29.246094 0 29.746094 -0.5 29.746094 -1.597656 L 29.746094 -66.675781 L 41.324219 -66.675781 C 42.421875 -66.675781 42.917969 -67.273438 42.917969 -68.273438 L 42.917969 -78.253906 C 42.917969 -79.25 42.421875 -79.851562 41.324219 -79.851562 Z M 4.589844 -79.851562 "/></g></g></g><g fill="rgb(100%, 100%, 100%)" fill-opacity="1"><g transform="translate(676.931303, 444.063102)"><g><path d="M 31.339844 -41.324219 L 18.566406 -41.324219 L 18.566406 -68.273438 C 18.566406 -69.269531 17.964844 -69.867188 16.96875 -69.867188 L 6.6875 -69.867188 C 5.488281 -69.867188 4.992188 -69.269531 4.992188 -68.273438 L 4.992188 -1.597656 C 4.992188 -0.597656 5.488281 0 6.6875 0 L 16.96875 0 C 17.964844 0 18.566406 -0.597656 18.566406 -1.597656 L 18.566406 -28.148438 L 31.339844 -28.148438 L 31.339844 -1.597656 C 31.339844 -0.597656 31.941406 0 32.9375 0 L 43.21875 0 C 44.417969 0 44.914062 -0.597656 44.914062 -1.597656 L 44.914062 -68.273438 C 44.914062 -69.269531 44.417969 -69.867188 43.21875 -69.867188 L 32.9375 -69.867188 C 31.941406 -69.867188 31.339844 -69.269531 31.339844 -68.273438 Z M 31.339844 -41.324219 "/></g></g></g><g fill="rgb(100%, 100%, 100%)" fill-opacity="1"><g transform="translate(728.833249, 444.063102)"><g><path d="M 44.816406 -68.273438 C 44.816406 -69.269531 44.417969 -69.867188 43.21875 -69.867188 L 6.488281 -69.867188 C 5.589844 -69.867188 4.992188 -69.269531 4.992188 -68.273438 L 4.992188 -1.597656 C 4.992188 -0.597656 5.589844 0 6.488281 0 L 43.21875 0 C 44.417969 0 44.816406 -0.597656 44.816406 -1.597656 L 44.816406 -11.578125 C 44.816406 -12.675781 44.417969 -13.175781 43.21875 -13.175781 L 18.566406 -13.175781 L 18.566406 -27.949219 L 37.328125 -27.949219 C 38.328125 -27.949219 38.925781 -28.546875 38.925781 -29.644531 L 38.925781 -39.527344 C 38.925781 -40.625 38.328125 -41.222656 37.328125 -41.222656 L 18.566406 -41.222656 L 18.566406 -56.59375 L 43.21875 -56.59375 C 44.417969 -56.59375 44.816406 -57.292969 44.816406 -58.289062 Z M 44.816406 -68.273438 "/></g></g></g><g fill="rgb(100%, 100%, 100%)" fill-opacity="1"><g transform="translate(780.635404, 444.063102)"><g/></g></g><g fill="rgb(100%, 100%, 100%)" fill-opacity="1"><g transform="translate(807.584535, 444.063102)"><g><path d="M 4.589844 -79.851562 C 3.59375 -79.851562 2.996094 -79.25 2.996094 -78.253906 L 2.996094 -68.273438 C 2.996094 -67.273438 3.59375 -66.675781 4.589844 -66.675781 L 16.167969 -66.675781 L 16.167969 -1.597656 C 16.167969 -0.5 16.769531 0 17.765625 0 L 28.148438 0 C 29.246094 0 29.746094 -0.5 29.746094 -1.597656 L 29.746094 -66.675781 L 41.324219 -66.675781 C 42.421875 -66.675781 42.917969 -67.273438 42.917969 -68.273438 L 42.917969 -78.253906 C 42.917969 -79.25 42.421875 -79.851562 41.324219 -79.851562 Z M 4.589844 -79.851562 "/></g></g></g><g fill="rgb(100%, 100%, 100%)" fill-opacity="1"><g transform="translate(855.494027, 444.063102)"><g><path d="M 44.816406 -68.273438 C 44.816406 -69.269531 44.417969 -69.867188 43.21875 -69.867188 L 6.488281 -69.867188 C 5.589844 -69.867188 4.992188 -69.269531 4.992188 -68.273438 L 4.992188 -1.597656 C 4.992188 -0.597656 5.589844 0 6.488281 0 L 43.21875 0 C 44.417969 0 44.816406 -0.597656 44.816406 -1.597656 L 44.816406 -11.578125 C 44.816406 -12.675781 44.417969 -13.175781 43.21875 -13.175781 L 18.566406 -13.175781 L 18.566406 -27.949219 L 37.328125 -27.949219 C 38.328125 -27.949219 38.925781 -28.546875 38.925781 -29.644531 L 38.925781 -39.527344 C 38.925781 -40.625 38.328125 -41.222656 37.328125 -41.222656 L 18.566406 -41.222656 L 18.566406 -56.59375 L 43.21875 -56.59375 C 44.417969 -56.59375 44.816406 -57.292969 44.816406 -58.289062 Z M 44.816406 -68.273438 "/></g></g></g><g fill="rgb(100%, 100%, 100%)" fill-opacity="1"><g transform="translate(907.296182, 444.063102)"><g><path d="M 52.101562 0 C 53.300781 0 53.800781 -0.597656 53.5 -1.695312 L 36.929688 -68.472656 C 36.730469 -69.46875 36.132812 -69.867188 35.234375 -69.867188 L 21.359375 -69.867188 C 20.460938 -69.867188 19.863281 -69.46875 19.664062 -68.472656 L 3.09375 -1.695312 C 2.792969 -0.597656 3.292969 0 4.390625 0 L 14.171875 0 C 15.070312 0 15.570312 -0.5 15.769531 -1.398438 L 18.863281 -13.972656 L 37.628906 -13.972656 L 40.824219 -1.398438 C 41.023438 -0.5 41.523438 0 42.421875 0 Z M 34.535156 -25.550781 L 21.957031 -25.550781 L 28.246094 -52.699219 Z M 34.535156 -25.550781 "/></g></g></g><g fill="rgb(100%, 100%, 100%)" fill-opacity="1"><g transform="translate(965.885481, 444.063102)"><g><path d="M 46.710938 -69.867188 C 45.515625 -69.867188 44.816406 -69.269531 44.515625 -68.171875 L 33.4375 -23.65625 L 22.359375 -68.171875 C 22.058594 -69.269531 21.359375 -69.867188 20.164062 -69.867188 L 6.988281 -69.867188 C 5.6875 -69.867188 4.992188 -69.171875 4.992188 -67.871094 L 4.992188 -1.996094 C 4.992188 -0.699219 5.6875 0 6.988281 0 L 16.167969 0 C 17.46875 0 18.164062 -0.699219 18.164062 -1.996094 L 18.164062 -41.222656 L 18.863281 -41.222656 L 28.246094 -1.695312 C 28.546875 -0.597656 29.246094 0 30.441406 0 L 36.332031 0 C 37.53125 0 38.226562 -0.597656 38.527344 -1.695312 L 47.910156 -41.222656 L 48.609375 -41.222656 L 48.609375 -1.996094 C 48.609375 -0.699219 49.308594 0 50.605469 0 L 59.886719 0 C 61.183594 0 61.882812 -0.699219 61.882812 -1.996094 L 61.882812 -67.871094 C 61.882812 -69.171875 61.183594 -69.867188 59.886719 -69.867188 Z M 46.710938 -69.867188 "/></g></g></g><g fill="rgb(100%, 100%, 100%)" fill-opacity="1"><g transform="translate(1034.755332, 444.063102)"><g><path d="M 6.089844 -79.851562 C 4.992188 -79.851562 4.492188 -79.25 4.492188 -78.253906 L 5.191406 -23.855469 C 5.191406 -22.855469 5.6875 -22.257812 6.789062 -22.257812 L 16.269531 -22.257812 C 17.269531 -22.257812 17.867188 -22.855469 17.867188 -23.855469 L 18.566406 -78.253906 C 18.566406 -79.25 17.964844 -79.851562 16.96875 -79.851562 Z M 4.992188 -1.996094 C 4.992188 -0.699219 5.6875 0 6.988281 0 L 16.070312 0 C 17.367188 0 18.066406 -0.699219 18.066406 -1.996094 L 18.066406 -11.179688 C 18.066406 -12.476562 17.367188 -13.175781 16.070312 -13.175781 L 6.988281 -13.175781 C 5.6875 -13.175781 4.992188 -12.476562 4.992188 -11.179688 Z M 4.992188 -1.996094 "/></g></g></g><path stroke-linecap="butt" transform="matrix(3.743068, 0, 0, 3.743068, 55.23105, 483.23013)" fill="none" stroke-linejoin="miter" d="M -0.000155321 0.0000904703 L 355.200171 0.0000904703 " stroke="rgb(100%, 100%, 100%)" stroke-width="1" stroke-opacity="1" stroke-miterlimit="4"/></svg>