<svg xmlns="http://www.w3.org/2000/svg" xmlns:xlink="http://www.w3.org/1999/xlink" width="1920" zoomAndPan="magnify" viewBox="0 0 1440 179.999997" height="240" preserveAspectRatio="xMidYMid meet" version="1.0"><defs><clipPath id="id1"><path d="M 13.59375 68.269531 L 51.84375 68.269531 L 51.84375 111.769531 L 13.59375 111.769531 Z M 13.59375 68.269531 " clip-rule="nonzero"/></clipPath><clipPath id="id2"><path d="M 0 57.441406 L 65.25 57.441406 L 65.25 122.691406 L 0 122.691406 Z M 0 57.441406 " clip-rule="nonzero"/></clipPath><clipPath id="id3"><path d="M 1059.160156 68.269531 L 1097.410156 68.269531 L 1097.410156 111.769531 L 1059.160156 111.769531 Z M 1059.160156 68.269531 " clip-rule="nonzero"/></clipPath><clipPath id="id4"><path d="M 1045.566406 57.441406 L 1110.816406 57.441406 L 1110.816406 122.691406 L 1045.566406 122.691406 Z M 1045.566406 57.441406 " clip-rule="nonzero"/></clipPath><clipPath id="id5"><path d="M 343 68.269531 L 381.160156 68.269531 L 381.160156 111.769531 L 343 111.769531 Z M 343 68.269531 " clip-rule="nonzero"/></clipPath><clipPath id="id6"><path d="M 329.316406 57.441406 L 394.566406 57.441406 L 394.566406 122.691406 L 329.316406 122.691406 Z M 329.316406 57.441406 " clip-rule="nonzero"/></clipPath><clipPath id="id7"><path d="M 1388.480469 68.269531 L 1426.730469 68.269531 L 1426.730469 111.769531 L 1388.480469 111.769531 Z M 1388.480469 68.269531 " clip-rule="nonzero"/></clipPath><clipPath id="id8"><path d="M 1374.886719 57.441406 L 1440 57.441406 L 1440 122.691406 L 1374.886719 122.691406 Z M 1374.886719 57.441406 " clip-rule="nonzero"/></clipPath><clipPath id="id9"><path d="M 704.789062 72.019531 L 743 72.019531 L 743 115.519531 L 704.789062 115.519531 Z M 704.789062 72.019531 " clip-rule="nonzero"/></clipPath><clipPath id="id10"><path d="M 691.199219 61.191406 L 756.449219 61.191406 L 756.449219 126.441406 L 691.199219 126.441406 Z M 691.199219 61.191406 " clip-rule="nonzero"/></clipPath><clipPath id="id11"><path d="M 1388.480469 68.269531 L 1426.730469 68.269531 L 1426.730469 111.769531 L 1388.480469 111.769531 Z M 1388.480469 68.269531 " clip-rule="nonzero"/></clipPath><clipPath id="id12"><path d="M 1374.886719 57.441406 L 1440 57.441406 L 1440 122.691406 L 1374.886719 122.691406 Z M 1374.886719 57.441406 " clip-rule="nonzero"/></clipPath></defs><g clip-path="url(#id1)"><path fill="rgb(3.919983%, 35.289001%, 45.489502%)" d="M 13.714844 77.648438 C 13.714844 75.96875 14.113281 74.414062 14.910156 72.980469 C 15.726562 71.53125 16.839844 70.390625 18.246094 69.5625 C 19.648438 68.714844 21.167969 68.289062 22.800781 68.289062 C 24.09375 68.289062 25.300781 68.542969 26.421875 69.050781 C 27.539062 69.5625 28.527344 70.25 29.324219 71.117188 C 30.140625 71.964844 30.777344 72.953125 31.234375 74.085938 C 31.691406 75.214844 31.917969 76.402344 31.917969 77.648438 C 31.917969 79.304688 31.519531 80.859375 30.722656 82.3125 C 29.925781 83.765625 28.824219 84.921875 27.417969 85.789062 C 26.011719 86.65625 24.472656 87.089844 22.800781 87.089844 C 21.09375 87.089844 19.535156 86.65625 18.128906 85.789062 C 16.726562 84.921875 15.660156 83.765625 14.882812 82.3125 C 14.105469 80.859375 13.714844 79.289062 13.714844 77.648438 Z M 20.664062 104.167969 L 39.496094 71.34375 C 40.101562 70.304688 40.671875 69.542969 41.203125 69.050781 C 41.738281 68.542969 42.371094 68.289062 43.113281 68.289062 C 43.738281 68.289062 44.320312 68.441406 44.851562 68.742188 C 45.382812 69.042969 45.800781 69.421875 46.105469 69.929688 C 46.410156 70.417969 46.558594 70.945312 46.558594 71.511719 C 46.558594 72.210938 46.410156 72.871094 46.105469 73.492188 C 45.800781 74.113281 45.34375 74.886719 44.738281 75.867188 L 25.90625 108.691406 C 25.355469 109.691406 24.804688 110.453125 24.253906 110.980469 C 23.703125 111.507812 23.050781 111.773438 22.289062 111.773438 C 21.320312 111.773438 20.503906 111.453125 19.839844 110.8125 C 19.175781 110.171875 18.84375 109.40625 18.84375 108.519531 C 18.84375 107.824219 18.984375 107.183594 19.269531 106.597656 C 19.554688 106.015625 20.039062 105.203125 20.664062 104.167969 Z M 20.351562 77.648438 C 20.351562 78.4375 20.570312 79.109375 21.007812 79.65625 C 21.445312 80.203125 22.0625 80.445312 22.800781 80.445312 C 23.5625 80.445312 24.160156 80.183594 24.597656 79.65625 C 25.035156 79.128906 25.253906 78.4375 25.253906 77.648438 C 25.253906 76.855469 25.035156 76.234375 24.597656 75.726562 C 24.160156 75.214844 23.5625 74.933594 22.800781 74.933594 C 22.0625 74.933594 21.464844 75.195312 21.007812 75.726562 C 20.550781 76.253906 20.351562 76.875 20.351562 77.648438 Z M 40.152344 102.386719 C 40.152344 103.121094 40.367188 103.761719 40.804688 104.308594 C 41.242188 104.855469 41.859375 105.101562 42.601562 105.101562 C 43.339844 105.101562 43.929688 104.835938 44.367188 104.308594 C 44.804688 103.78125 45.050781 103.121094 45.050781 102.386719 C 45.050781 101.613281 44.824219 100.964844 44.367188 100.433594 C 43.910156 99.90625 43.339844 99.617188 42.601562 99.617188 C 41.859375 99.617188 41.261719 99.890625 40.804688 100.433594 C 40.351562 100.980469 40.152344 101.613281 40.152344 102.386719 Z M 33.484375 102.386719 C 33.484375 100.691406 33.882812 99.125 34.679688 97.691406 C 35.496094 96.242188 36.597656 95.089844 37.984375 94.242188 C 39.371094 93.394531 40.929688 92.941406 42.601562 92.941406 C 44.273438 92.941406 45.800781 93.375 47.1875 94.242188 C 48.574219 95.109375 49.664062 96.269531 50.464844 97.722656 C 51.28125 99.152344 51.6875 100.707031 51.6875 102.386719 C 51.6875 104.042969 51.28125 105.589844 50.464844 107.023438 C 49.664062 108.457031 48.574219 109.605469 47.1875 110.472656 C 45.800781 111.339844 44.273438 111.773438 42.601562 111.773438 C 40.871094 111.773438 39.304688 111.347656 37.898438 110.5 C 36.496094 109.652344 35.429688 108.472656 34.652344 107.023438 C 33.875 105.570312 33.484375 104.027344 33.484375 102.386719 Z M 33.484375 102.386719 " fill-opacity="1" fill-rule="nonzero"/></g><g clip-path="url(#id2)"><path fill="rgb(18.818665%, 59.21936%, 72.158813%)" d="M 32.625 57.441406 C 14.605469 57.441406 0 72.050781 0 90.066406 C 0 108.085938 14.605469 122.691406 32.625 122.691406 C 50.644531 122.691406 65.25 108.085938 65.25 90.066406 C 65.25 72.050781 50.644531 57.441406 32.625 57.441406 Z M 5.625 90.066406 C 5.625 75.179688 17.738281 63.066406 32.625 63.066406 C 39.203125 63.066406 45.234375 65.433594 49.921875 69.355469 L 11.914062 107.363281 C 7.992188 102.675781 5.625 96.644531 5.625 90.066406 Z M 32.625 117.066406 C 26.335938 117.066406 20.546875 114.898438 15.953125 111.28125 L 53.839844 73.394531 C 57.457031 77.988281 59.625 83.78125 59.625 90.066406 C 59.625 104.957031 47.511719 117.066406 32.625 117.066406 Z M 32.625 117.066406 " fill-opacity="1" fill-rule="nonzero"/></g><g clip-path="url(#id3)"><path fill="rgb(3.919983%, 35.289001%, 45.489502%)" d="M 1059.28125 77.648438 C 1059.28125 75.96875 1059.683594 74.414062 1060.480469 72.980469 C 1061.296875 71.53125 1062.40625 70.390625 1063.8125 69.5625 C 1065.21875 68.714844 1066.738281 68.289062 1068.371094 68.289062 C 1069.660156 68.289062 1070.867188 68.542969 1071.988281 69.050781 C 1073.109375 69.5625 1074.097656 70.25 1074.894531 71.117188 C 1075.710938 71.964844 1076.347656 72.953125 1076.800781 74.085938 C 1077.257812 75.214844 1077.484375 76.402344 1077.484375 77.648438 C 1077.484375 79.304688 1077.085938 80.859375 1076.289062 82.3125 C 1075.492188 83.765625 1074.390625 84.921875 1072.984375 85.789062 C 1071.578125 86.65625 1070.042969 87.089844 1068.371094 87.089844 C 1066.660156 87.089844 1065.105469 86.65625 1063.699219 85.789062 C 1062.292969 84.921875 1061.230469 83.765625 1060.449219 82.3125 C 1059.671875 80.859375 1059.28125 79.289062 1059.28125 77.648438 Z M 1066.234375 104.167969 L 1085.0625 71.34375 C 1085.671875 70.304688 1086.242188 69.542969 1086.773438 69.050781 C 1087.304688 68.542969 1087.941406 68.289062 1088.679688 68.289062 C 1089.308594 68.289062 1089.886719 68.441406 1090.417969 68.742188 C 1090.949219 69.042969 1091.367188 69.421875 1091.671875 69.929688 C 1091.976562 70.417969 1092.128906 70.945312 1092.128906 71.511719 C 1092.128906 72.210938 1091.976562 72.871094 1091.671875 73.492188 C 1091.367188 74.113281 1090.914062 74.886719 1090.304688 75.867188 L 1071.476562 108.691406 C 1070.925781 109.691406 1070.375 110.453125 1069.824219 110.980469 C 1069.273438 111.507812 1068.617188 111.773438 1067.859375 111.773438 C 1066.890625 111.773438 1066.074219 111.453125 1065.40625 110.8125 C 1064.742188 110.171875 1064.410156 109.40625 1064.410156 108.519531 C 1064.410156 107.824219 1064.554688 107.183594 1064.839844 106.597656 C 1065.121094 106.015625 1065.605469 105.203125 1066.234375 104.167969 Z M 1065.921875 77.648438 C 1065.921875 78.4375 1066.140625 79.109375 1066.574219 79.65625 C 1067.011719 80.203125 1067.628906 80.445312 1068.371094 80.445312 C 1069.128906 80.445312 1069.726562 80.183594 1070.164062 79.65625 C 1070.601562 79.128906 1070.820312 78.4375 1070.820312 77.648438 C 1070.820312 76.855469 1070.601562 76.234375 1070.164062 75.726562 C 1069.726562 75.214844 1069.128906 74.933594 1068.371094 74.933594 C 1067.628906 74.933594 1067.03125 75.195312 1066.574219 75.726562 C 1066.121094 76.253906 1065.921875 76.875 1065.921875 77.648438 Z M 1085.71875 102.386719 C 1085.71875 103.121094 1085.9375 103.761719 1086.375 104.308594 C 1086.8125 104.855469 1087.429688 105.101562 1088.167969 105.101562 C 1088.910156 105.101562 1089.5 104.835938 1089.933594 104.308594 C 1090.371094 103.78125 1090.617188 103.121094 1090.617188 102.386719 C 1090.617188 101.613281 1090.390625 100.964844 1089.933594 100.433594 C 1089.480469 99.90625 1088.910156 99.617188 1088.167969 99.617188 C 1087.429688 99.617188 1086.828125 99.890625 1086.375 100.433594 C 1085.917969 100.980469 1085.71875 101.613281 1085.71875 102.386719 Z M 1079.054688 102.386719 C 1079.054688 100.691406 1079.453125 99.125 1080.25 97.691406 C 1081.066406 96.242188 1082.167969 95.089844 1083.554688 94.242188 C 1084.941406 93.394531 1086.496094 92.941406 1088.167969 92.941406 C 1089.839844 92.941406 1091.367188 93.375 1092.753906 94.242188 C 1094.140625 95.109375 1095.234375 96.269531 1096.03125 97.722656 C 1096.847656 99.152344 1097.257812 100.707031 1097.257812 102.386719 C 1097.257812 104.042969 1096.847656 105.589844 1096.03125 107.023438 C 1095.234375 108.457031 1094.140625 109.605469 1092.753906 110.472656 C 1091.367188 111.339844 1089.839844 111.773438 1088.167969 111.773438 C 1086.441406 111.773438 1084.875 111.347656 1083.46875 110.5 C 1082.0625 109.652344 1081 108.472656 1080.222656 107.023438 C 1079.441406 105.570312 1079.054688 104.027344 1079.054688 102.386719 Z M 1079.054688 102.386719 " fill-opacity="1" fill-rule="nonzero"/></g><g clip-path="url(#id4)"><path fill="rgb(18.818665%, 59.21936%, 72.158813%)" d="M 1078.191406 57.441406 C 1060.175781 57.441406 1045.566406 72.050781 1045.566406 90.066406 C 1045.566406 108.085938 1060.175781 122.691406 1078.191406 122.691406 C 1096.210938 122.691406 1110.816406 108.085938 1110.816406 90.066406 C 1110.816406 72.050781 1096.210938 57.441406 1078.191406 57.441406 Z M 1051.191406 90.066406 C 1051.191406 75.179688 1063.304688 63.066406 1078.191406 63.066406 C 1084.769531 63.066406 1090.800781 65.433594 1095.488281 69.355469 L 1057.480469 107.363281 C 1053.558594 102.675781 1051.191406 96.644531 1051.191406 90.066406 Z M 1078.191406 117.066406 C 1071.90625 117.066406 1066.113281 114.898438 1061.519531 111.28125 L 1099.40625 73.394531 C 1103.023438 77.988281 1105.191406 83.78125 1105.191406 90.066406 C 1105.191406 104.957031 1093.082031 117.066406 1078.191406 117.066406 Z M 1078.191406 117.066406 " fill-opacity="1" fill-rule="nonzero"/></g><g clip-path="url(#id5)"><path fill="rgb(3.919983%, 35.289001%, 45.489502%)" d="M 343.03125 77.648438 C 343.03125 75.96875 343.433594 74.414062 344.230469 72.980469 C 345.046875 71.53125 346.15625 70.390625 347.5625 69.5625 C 348.96875 68.714844 350.488281 68.289062 352.121094 68.289062 C 353.410156 68.289062 354.617188 68.542969 355.738281 69.050781 C 356.859375 69.5625 357.847656 70.25 358.644531 71.117188 C 359.460938 71.964844 360.097656 72.953125 360.550781 74.085938 C 361.007812 75.214844 361.234375 76.402344 361.234375 77.648438 C 361.234375 79.304688 360.835938 80.859375 360.039062 82.3125 C 359.242188 83.765625 358.140625 84.921875 356.734375 85.789062 C 355.328125 86.65625 353.792969 87.089844 352.121094 87.089844 C 350.410156 87.089844 348.855469 86.65625 347.449219 85.789062 C 346.042969 84.921875 344.980469 83.765625 344.199219 82.3125 C 343.421875 80.859375 343.03125 79.289062 343.03125 77.648438 Z M 349.984375 104.167969 L 368.8125 71.34375 C 369.421875 70.304688 369.992188 69.542969 370.523438 69.050781 C 371.054688 68.542969 371.691406 68.289062 372.429688 68.289062 C 373.058594 68.289062 373.636719 68.441406 374.167969 68.742188 C 374.699219 69.042969 375.117188 69.421875 375.421875 69.929688 C 375.726562 70.417969 375.878906 70.945312 375.878906 71.511719 C 375.878906 72.210938 375.726562 72.871094 375.421875 73.492188 C 375.117188 74.113281 374.664062 74.886719 374.054688 75.867188 L 355.226562 108.691406 C 354.675781 109.691406 354.125 110.453125 353.574219 110.980469 C 353.023438 111.507812 352.367188 111.773438 351.609375 111.773438 C 350.640625 111.773438 349.824219 111.453125 349.15625 110.8125 C 348.492188 110.171875 348.160156 109.40625 348.160156 108.519531 C 348.160156 107.824219 348.304688 107.183594 348.589844 106.597656 C 348.871094 106.015625 349.355469 105.203125 349.984375 104.167969 Z M 349.671875 77.648438 C 349.671875 78.4375 349.890625 79.109375 350.324219 79.65625 C 350.761719 80.203125 351.378906 80.445312 352.121094 80.445312 C 352.878906 80.445312 353.476562 80.183594 353.914062 79.65625 C 354.351562 79.128906 354.570312 78.4375 354.570312 77.648438 C 354.570312 76.855469 354.351562 76.234375 353.914062 75.726562 C 353.476562 75.214844 352.878906 74.933594 352.121094 74.933594 C 351.378906 74.933594 350.78125 75.195312 350.324219 75.726562 C 349.871094 76.253906 349.671875 76.875 349.671875 77.648438 Z M 369.46875 102.386719 C 369.46875 103.121094 369.6875 103.761719 370.125 104.308594 C 370.5625 104.855469 371.179688 105.101562 371.917969 105.101562 C 372.660156 105.101562 373.25 104.835938 373.683594 104.308594 C 374.121094 103.78125 374.367188 103.121094 374.367188 102.386719 C 374.367188 101.613281 374.140625 100.964844 373.683594 100.433594 C 373.230469 99.90625 372.660156 99.617188 371.917969 99.617188 C 371.179688 99.617188 370.578125 99.890625 370.125 100.433594 C 369.667969 100.980469 369.46875 101.613281 369.46875 102.386719 Z M 362.804688 102.386719 C 362.804688 100.691406 363.203125 99.125 364 97.691406 C 364.816406 96.242188 365.917969 95.089844 367.304688 94.242188 C 368.691406 93.394531 370.246094 92.941406 371.917969 92.941406 C 373.589844 92.941406 375.117188 93.375 376.503906 94.242188 C 377.890625 95.109375 378.984375 96.269531 379.78125 97.722656 C 380.597656 99.152344 381.007812 100.707031 381.007812 102.386719 C 381.007812 104.042969 380.597656 105.589844 379.78125 107.023438 C 378.984375 108.457031 377.890625 109.605469 376.503906 110.472656 C 375.117188 111.339844 373.589844 111.773438 371.917969 111.773438 C 370.191406 111.773438 368.625 111.347656 367.21875 110.5 C 365.8125 109.652344 364.75 108.472656 363.972656 107.023438 C 363.191406 105.570312 362.804688 104.027344 362.804688 102.386719 Z M 362.804688 102.386719 " fill-opacity="1" fill-rule="nonzero"/></g><g clip-path="url(#id6)"><path fill="rgb(18.818665%, 59.21936%, 72.158813%)" d="M 361.941406 57.441406 C 343.925781 57.441406 329.316406 72.050781 329.316406 90.066406 C 329.316406 108.085938 343.925781 122.691406 361.941406 122.691406 C 379.960938 122.691406 394.566406 108.085938 394.566406 90.066406 C 394.566406 72.050781 379.960938 57.441406 361.941406 57.441406 Z M 334.941406 90.066406 C 334.941406 75.179688 347.054688 63.066406 361.941406 63.066406 C 368.519531 63.066406 374.550781 65.433594 379.238281 69.355469 L 341.230469 107.363281 C 337.308594 102.675781 334.941406 96.644531 334.941406 90.066406 Z M 361.941406 117.066406 C 355.65625 117.066406 349.863281 114.898438 345.269531 111.28125 L 383.15625 73.394531 C 386.773438 77.988281 388.941406 83.78125 388.941406 90.066406 C 388.941406 104.957031 376.832031 117.066406 361.941406 117.066406 Z M 361.941406 117.066406 " fill-opacity="1" fill-rule="nonzero"/></g><g clip-path="url(#id7)"><path fill="rgb(3.919983%, 35.289001%, 45.489502%)" d="M 1388.601562 77.648438 C 1388.601562 75.96875 1389 74.414062 1389.796875 72.980469 C 1390.613281 71.53125 1391.726562 70.390625 1393.128906 69.5625 C 1394.535156 68.714844 1396.054688 68.289062 1397.6875 68.289062 C 1398.980469 68.289062 1400.1875 68.542969 1401.304688 69.050781 C 1402.425781 69.5625 1403.414062 70.25 1404.210938 71.117188 C 1405.027344 71.964844 1405.664062 72.953125 1406.121094 74.085938 C 1406.578125 75.214844 1406.804688 76.402344 1406.804688 77.648438 C 1406.804688 79.304688 1406.40625 80.859375 1405.609375 82.3125 C 1404.808594 83.765625 1403.707031 84.921875 1402.304688 85.789062 C 1400.898438 86.65625 1399.359375 87.089844 1397.6875 87.089844 C 1395.980469 87.089844 1394.421875 86.65625 1393.015625 85.789062 C 1391.609375 84.921875 1390.546875 83.765625 1389.769531 82.3125 C 1388.992188 80.859375 1388.601562 79.289062 1388.601562 77.648438 Z M 1395.550781 104.167969 L 1414.382812 71.34375 C 1414.988281 70.304688 1415.558594 69.542969 1416.089844 69.050781 C 1416.621094 68.542969 1417.257812 68.289062 1418 68.289062 C 1418.625 68.289062 1419.207031 68.441406 1419.738281 68.742188 C 1420.269531 69.042969 1420.6875 69.421875 1420.992188 69.929688 C 1421.292969 70.417969 1421.445312 70.945312 1421.445312 71.511719 C 1421.445312 72.210938 1421.292969 72.871094 1420.992188 73.492188 C 1420.6875 74.113281 1420.230469 74.886719 1419.625 75.867188 L 1400.792969 108.691406 C 1400.242188 109.691406 1399.691406 110.453125 1399.140625 110.980469 C 1398.589844 111.507812 1397.933594 111.773438 1397.175781 111.773438 C 1396.207031 111.773438 1395.390625 111.453125 1394.726562 110.8125 C 1394.0625 110.171875 1393.730469 109.40625 1393.730469 108.519531 C 1393.730469 107.824219 1393.871094 107.183594 1394.15625 106.597656 C 1394.441406 106.015625 1394.925781 105.203125 1395.550781 104.167969 Z M 1395.238281 77.648438 C 1395.238281 78.4375 1395.457031 79.109375 1395.894531 79.65625 C 1396.332031 80.203125 1396.949219 80.445312 1397.6875 80.445312 C 1398.449219 80.445312 1399.046875 80.183594 1399.484375 79.65625 C 1399.917969 79.128906 1400.136719 78.4375 1400.136719 77.648438 C 1400.136719 76.855469 1399.921875 76.234375 1399.484375 75.726562 C 1399.046875 75.214844 1398.449219 74.933594 1397.6875 74.933594 C 1396.949219 74.933594 1396.347656 75.195312 1395.894531 75.726562 C 1395.4375 76.253906 1395.238281 76.875 1395.238281 77.648438 Z M 1415.035156 102.386719 C 1415.035156 103.121094 1415.253906 103.761719 1415.691406 104.308594 C 1416.128906 104.855469 1416.746094 105.101562 1417.488281 105.101562 C 1418.226562 105.101562 1418.816406 104.835938 1419.253906 104.308594 C 1419.691406 103.78125 1419.9375 103.121094 1419.9375 102.386719 C 1419.9375 101.613281 1419.707031 100.964844 1419.253906 100.433594 C 1418.796875 99.90625 1418.226562 99.617188 1417.488281 99.617188 C 1416.746094 99.617188 1416.148438 99.890625 1415.691406 100.433594 C 1415.238281 100.980469 1415.035156 101.613281 1415.035156 102.386719 Z M 1408.371094 102.386719 C 1408.371094 100.691406 1408.769531 99.125 1409.566406 97.691406 C 1410.382812 96.242188 1411.484375 95.089844 1412.871094 94.242188 C 1414.257812 93.394531 1415.816406 92.941406 1417.488281 92.941406 C 1419.15625 92.941406 1420.6875 93.375 1422.074219 94.242188 C 1423.460938 95.109375 1424.550781 96.269531 1425.347656 97.722656 C 1426.164062 99.152344 1426.574219 100.707031 1426.574219 102.386719 C 1426.574219 104.042969 1426.164062 105.589844 1425.347656 107.023438 C 1424.550781 108.457031 1423.460938 109.605469 1422.074219 110.472656 C 1420.6875 111.339844 1419.15625 111.773438 1417.488281 111.773438 C 1415.757812 111.773438 1414.191406 111.347656 1412.785156 110.5 C 1411.382812 109.652344 1410.316406 108.472656 1409.539062 107.023438 C 1408.761719 105.570312 1408.371094 104.027344 1408.371094 102.386719 Z M 1408.371094 102.386719 " fill-opacity="1" fill-rule="nonzero"/></g><g clip-path="url(#id8)"><path fill="rgb(18.818665%, 59.21936%, 72.158813%)" d="M 1407.511719 57.441406 C 1389.492188 57.441406 1374.886719 72.050781 1374.886719 90.066406 C 1374.886719 108.085938 1389.492188 122.691406 1407.511719 122.691406 C 1425.53125 122.691406 1440.136719 108.085938 1440.136719 90.066406 C 1440.136719 72.050781 1425.53125 57.441406 1407.511719 57.441406 Z M 1380.511719 90.066406 C 1380.511719 75.179688 1392.625 63.066406 1407.511719 63.066406 C 1414.089844 63.066406 1420.121094 65.433594 1424.808594 69.355469 L 1386.800781 107.363281 C 1382.878906 102.675781 1380.511719 96.644531 1380.511719 90.066406 Z M 1407.511719 117.066406 C 1401.222656 117.066406 1395.433594 114.898438 1390.839844 111.28125 L 1428.722656 73.394531 C 1432.34375 77.988281 1434.511719 83.78125 1434.511719 90.066406 C 1434.511719 104.957031 1422.398438 117.066406 1407.511719 117.066406 Z M 1407.511719 117.066406 " fill-opacity="1" fill-rule="nonzero"/></g><g clip-path="url(#id9)"><path fill="rgb(3.919983%, 35.289001%, 45.489502%)" d="M 704.914062 81.398438 C 704.914062 79.71875 705.3125 78.164062 706.109375 76.730469 C 706.925781 75.28125 708.035156 74.140625 709.441406 73.3125 C 710.847656 72.464844 712.367188 72.039062 714 72.039062 C 715.292969 72.039062 716.496094 72.292969 717.617188 72.800781 C 718.738281 73.3125 719.726562 74 720.523438 74.867188 C 721.339844 75.714844 721.976562 76.703125 722.433594 77.835938 C 722.886719 78.964844 723.117188 80.152344 723.117188 81.398438 C 723.117188 83.054688 722.71875 84.609375 721.917969 86.0625 C 721.121094 87.515625 720.019531 88.671875 718.613281 89.539062 C 717.210938 90.40625 715.671875 90.839844 714 90.839844 C 712.292969 90.839844 710.734375 90.40625 709.328125 89.539062 C 707.921875 88.671875 706.859375 87.515625 706.082031 86.0625 C 705.300781 84.609375 704.914062 83.039062 704.914062 81.398438 Z M 711.863281 107.917969 L 730.695312 75.09375 C 731.300781 74.054688 731.871094 73.292969 732.402344 72.800781 C 732.933594 72.292969 733.570312 72.039062 734.3125 72.039062 C 734.9375 72.039062 735.515625 72.191406 736.050781 72.492188 C 736.582031 72.792969 737 73.171875 737.300781 73.679688 C 737.605469 74.167969 737.757812 74.695312 737.757812 75.261719 C 737.757812 75.960938 737.605469 76.621094 737.300781 77.242188 C 737 77.863281 736.542969 78.636719 735.933594 79.617188 L 717.105469 112.441406 C 716.554688 113.441406 716.003906 114.203125 715.453125 114.730469 C 714.902344 115.257812 714.246094 115.523438 713.488281 115.523438 C 712.519531 115.523438 711.703125 115.203125 711.039062 114.5625 C 710.371094 113.921875 710.039062 113.15625 710.039062 112.269531 C 710.039062 111.574219 710.183594 110.933594 710.46875 110.347656 C 710.753906 109.765625 711.238281 108.953125 711.863281 107.917969 Z M 711.550781 81.398438 C 711.550781 82.1875 711.769531 82.859375 712.207031 83.40625 C 712.640625 83.953125 713.257812 84.195312 714 84.195312 C 714.761719 84.195312 715.359375 83.933594 715.792969 83.40625 C 716.230469 82.878906 716.449219 82.1875 716.449219 81.398438 C 716.449219 80.605469 716.230469 79.984375 715.792969 79.476562 C 715.359375 78.964844 714.761719 78.683594 714 78.683594 C 713.257812 78.683594 712.660156 78.945312 712.207031 79.476562 C 711.75 80.003906 711.550781 80.625 711.550781 81.398438 Z M 731.347656 106.136719 C 731.347656 106.871094 731.566406 107.511719 732.003906 108.058594 C 732.441406 108.605469 733.058594 108.851562 733.796875 108.851562 C 734.539062 108.851562 735.128906 108.585938 735.566406 108.058594 C 736 107.53125 736.25 106.871094 736.25 106.136719 C 736.25 105.363281 736.019531 104.714844 735.566406 104.183594 C 735.109375 103.65625 734.539062 103.367188 733.796875 103.367188 C 733.058594 103.367188 732.460938 103.640625 732.003906 104.183594 C 731.546875 104.730469 731.347656 105.363281 731.347656 106.136719 Z M 724.683594 106.136719 C 724.683594 104.441406 725.082031 102.875 725.878906 101.441406 C 726.695312 99.992188 727.796875 98.839844 729.183594 97.992188 C 730.570312 97.144531 732.128906 96.691406 733.796875 96.691406 C 735.46875 96.691406 737 97.125 738.386719 97.992188 C 739.769531 98.859375 740.863281 100.019531 741.660156 101.472656 C 742.476562 102.902344 742.886719 104.457031 742.886719 106.136719 C 742.886719 107.792969 742.476562 109.339844 741.660156 110.773438 C 740.863281 112.207031 739.769531 113.355469 738.386719 114.222656 C 737 115.089844 735.46875 115.523438 733.796875 115.523438 C 732.070312 115.523438 730.503906 115.097656 729.097656 114.25 C 727.691406 113.402344 726.628906 112.222656 725.851562 110.773438 C 725.070312 109.320312 724.683594 107.777344 724.683594 106.136719 Z M 724.683594 106.136719 " fill-opacity="1" fill-rule="nonzero"/></g><g clip-path="url(#id10)"><path fill="rgb(18.818665%, 59.21936%, 72.158813%)" d="M 723.824219 61.191406 C 705.804688 61.191406 691.199219 75.800781 691.199219 93.816406 C 691.199219 111.835938 705.804688 126.441406 723.824219 126.441406 C 741.839844 126.441406 756.449219 111.835938 756.449219 93.816406 C 756.449219 75.800781 741.839844 61.191406 723.824219 61.191406 Z M 696.824219 93.816406 C 696.824219 78.929688 708.9375 66.816406 723.824219 66.816406 C 730.398438 66.816406 736.433594 69.183594 741.121094 73.105469 L 703.109375 111.113281 C 699.1875 106.425781 696.824219 100.394531 696.824219 93.816406 Z M 723.824219 120.816406 C 717.535156 120.816406 711.746094 118.648438 707.152344 115.03125 L 745.035156 77.144531 C 748.65625 81.738281 750.824219 87.53125 750.824219 93.816406 C 750.824219 108.707031 738.710938 120.816406 723.824219 120.816406 Z M 723.824219 120.816406 " fill-opacity="1" fill-rule="nonzero"/></g><g clip-path="url(#id11)"><path fill="rgb(3.919983%, 35.289001%, 45.489502%)" d="M 1388.601562 77.648438 C 1388.601562 75.96875 1389 74.414062 1389.796875 72.980469 C 1390.613281 71.53125 1391.726562 70.390625 1393.128906 69.5625 C 1394.535156 68.714844 1396.054688 68.289062 1397.6875 68.289062 C 1398.980469 68.289062 1400.1875 68.542969 1401.304688 69.050781 C 1402.425781 69.5625 1403.414062 70.25 1404.210938 71.117188 C 1405.027344 71.964844 1405.664062 72.953125 1406.121094 74.085938 C 1406.578125 75.214844 1406.804688 76.402344 1406.804688 77.648438 C 1406.804688 79.304688 1406.40625 80.859375 1405.609375 82.3125 C 1404.808594 83.765625 1403.707031 84.921875 1402.304688 85.789062 C 1400.898438 86.65625 1399.359375 87.089844 1397.6875 87.089844 C 1395.980469 87.089844 1394.421875 86.65625 1393.015625 85.789062 C 1391.609375 84.921875 1390.546875 83.765625 1389.769531 82.3125 C 1388.992188 80.859375 1388.601562 79.289062 1388.601562 77.648438 Z M 1395.550781 104.167969 L 1414.382812 71.34375 C 1414.988281 70.304688 1415.558594 69.542969 1416.089844 69.050781 C 1416.621094 68.542969 1417.257812 68.289062 1418 68.289062 C 1418.625 68.289062 1419.207031 68.441406 1419.738281 68.742188 C 1420.269531 69.042969 1420.6875 69.421875 1420.992188 69.929688 C 1421.292969 70.417969 1421.445312 70.945312 1421.445312 71.511719 C 1421.445312 72.210938 1421.292969 72.871094 1420.992188 73.492188 C 1420.6875 74.113281 1420.230469 74.886719 1419.625 75.867188 L 1400.792969 108.691406 C 1400.242188 109.691406 1399.691406 110.453125 1399.140625 110.980469 C 1398.589844 111.507812 1397.933594 111.773438 1397.175781 111.773438 C 1396.207031 111.773438 1395.390625 111.453125 1394.726562 110.8125 C 1394.0625 110.171875 1393.730469 109.40625 1393.730469 108.519531 C 1393.730469 107.824219 1393.871094 107.183594 1394.15625 106.597656 C 1394.441406 106.015625 1394.925781 105.203125 1395.550781 104.167969 Z M 1395.238281 77.648438 C 1395.238281 78.4375 1395.457031 79.109375 1395.894531 79.65625 C 1396.332031 80.203125 1396.949219 80.445312 1397.6875 80.445312 C 1398.449219 80.445312 1399.046875 80.183594 1399.484375 79.65625 C 1399.917969 79.128906 1400.136719 78.4375 1400.136719 77.648438 C 1400.136719 76.855469 1399.921875 76.234375 1399.484375 75.726562 C 1399.046875 75.214844 1398.449219 74.933594 1397.6875 74.933594 C 1396.949219 74.933594 1396.347656 75.195312 1395.894531 75.726562 C 1395.4375 76.253906 1395.238281 76.875 1395.238281 77.648438 Z M 1415.035156 102.386719 C 1415.035156 103.121094 1415.253906 103.761719 1415.691406 104.308594 C 1416.128906 104.855469 1416.746094 105.101562 1417.488281 105.101562 C 1418.226562 105.101562 1418.816406 104.835938 1419.253906 104.308594 C 1419.691406 103.78125 1419.9375 103.121094 1419.9375 102.386719 C 1419.9375 101.613281 1419.707031 100.964844 1419.253906 100.433594 C 1418.796875 99.90625 1418.226562 99.617188 1417.488281 99.617188 C 1416.746094 99.617188 1416.148438 99.890625 1415.691406 100.433594 C 1415.238281 100.980469 1415.035156 101.613281 1415.035156 102.386719 Z M 1408.371094 102.386719 C 1408.371094 100.691406 1408.769531 99.125 1409.566406 97.691406 C 1410.382812 96.242188 1411.484375 95.089844 1412.871094 94.242188 C 1414.257812 93.394531 1415.816406 92.941406 1417.488281 92.941406 C 1419.15625 92.941406 1420.6875 93.375 1422.074219 94.242188 C 1423.460938 95.109375 1424.550781 96.269531 1425.347656 97.722656 C 1426.164062 99.152344 1426.574219 100.707031 1426.574219 102.386719 C 1426.574219 104.042969 1426.164062 105.589844 1425.347656 107.023438 C 1424.550781 108.457031 1423.460938 109.605469 1422.074219 110.472656 C 1420.6875 111.339844 1419.15625 111.773438 1417.488281 111.773438 C 1415.757812 111.773438 1414.191406 111.347656 1412.785156 110.5 C 1411.382812 109.652344 1410.316406 108.472656 1409.539062 107.023438 C 1408.761719 105.570312 1408.371094 104.027344 1408.371094 102.386719 Z M 1408.371094 102.386719 " fill-opacity="1" fill-rule="nonzero"/></g><g clip-path="url(#id12)"><path fill="rgb(18.818665%, 59.21936%, 72.158813%)" d="M 1407.511719 57.441406 C 1389.492188 57.441406 1374.886719 72.050781 1374.886719 90.066406 C 1374.886719 108.085938 1389.492188 122.691406 1407.511719 122.691406 C 1425.53125 122.691406 1440.136719 108.085938 1440.136719 90.066406 C 1440.136719 72.050781 1425.53125 57.441406 1407.511719 57.441406 Z M 1380.511719 90.066406 C 1380.511719 75.179688 1392.625 63.066406 1407.511719 63.066406 C 1414.089844 63.066406 1420.121094 65.433594 1424.808594 69.355469 L 1386.800781 107.363281 C 1382.878906 102.675781 1380.511719 96.644531 1380.511719 90.066406 Z M 1407.511719 117.066406 C 1401.222656 117.066406 1395.433594 114.898438 1390.839844 111.28125 L 1428.722656 73.394531 C 1432.34375 77.988281 1434.511719 83.78125 1434.511719 90.066406 C 1434.511719 104.957031 1422.398438 117.066406 1407.511719 117.066406 Z M 1407.511719 117.066406 " fill-opacity="1" fill-rule="nonzero"/></g></svg>