<svg xmlns="http://www.w3.org/2000/svg" xmlns:xlink="http://www.w3.org/1999/xlink" width="390" zoomAndPan="magnify" viewBox="0 0 292.5 449.999984" height="600" preserveAspectRatio="xMidYMid meet" version="1.0"><defs><clipPath id="id1"><path d="M 6 411 L 91 411 L 91 449.613281 L 6 449.613281 Z M 6 411 " clip-rule="nonzero"/></clipPath><clipPath id="id2"><path d="M 203 411 L 288 411 L 288 449.613281 L 203 449.613281 Z M 203 411 " clip-rule="nonzero"/></clipPath><clipPath id="id3"><path d="M 13 39 L 280 39 L 280 449.613281 L 13 449.613281 Z M 13 39 " clip-rule="nonzero"/></clipPath><clipPath id="id4"><path d="M 4.167969 0.382812 L 288 0.382812 L 288 449.613281 L 4.167969 449.613281 Z M 4.167969 0.382812 " clip-rule="nonzero"/></clipPath></defs><path fill="rgb(67.83905%, 82.348633%, 88.238525%)" d="M 70.828125 11.875 L 221.566406 11.875 L 221.566406 44.125 L 70.828125 44.125 L 70.828125 11.875 " fill-opacity="1" fill-rule="nonzero"/><g clip-path="url(#id1)"><path fill="rgb(67.83905%, 82.348633%, 88.238525%)" d="M 48.355469 411.292969 C 25.160156 411.292969 6.355469 430.097656 6.355469 453.292969 C 6.355469 476.492188 25.160156 495.292969 48.355469 495.292969 C 71.550781 495.292969 90.355469 476.492188 90.355469 453.292969 C 90.355469 430.097656 71.550781 411.292969 48.355469 411.292969 " fill-opacity="1" fill-rule="nonzero"/></g><g clip-path="url(#id2)"><path fill="rgb(67.83905%, 82.348633%, 88.238525%)" d="M 245.96875 411.292969 C 222.773438 411.292969 203.96875 430.097656 203.96875 453.292969 C 203.96875 476.492188 222.773438 495.292969 245.96875 495.292969 C 269.164062 495.292969 287.96875 476.492188 287.96875 453.292969 C 287.96875 430.097656 269.164062 411.292969 245.96875 411.292969 " fill-opacity="1" fill-rule="nonzero"/></g><g clip-path="url(#id3)"><path fill="rgb(67.83905%, 82.348633%, 88.238525%)" d="M 13.589844 39.082031 L 279.835938 39.082031 L 279.835938 453.832031 L 13.589844 453.832031 L 13.589844 39.082031 " fill-opacity="1" fill-rule="nonzero"/></g><path fill="rgb(67.83905%, 82.348633%, 88.238525%)" d="M 54.355469 6.625 C 31.160156 6.625 12.355469 25.429688 12.355469 48.625 C 12.355469 71.820312 31.160156 90.625 54.355469 90.625 C 77.550781 90.625 96.355469 71.820312 96.355469 48.625 C 96.355469 25.429688 77.550781 6.625 54.355469 6.625 " fill-opacity="1" fill-rule="nonzero"/><path fill="rgb(67.83905%, 82.348633%, 88.238525%)" d="M 239.96875 7.375 C 216.773438 7.375 197.96875 26.179688 197.96875 49.375 C 197.96875 72.570312 216.773438 91.375 239.96875 91.375 C 263.164062 91.375 281.96875 72.570312 281.96875 49.375 C 281.96875 26.179688 263.164062 7.375 239.96875 7.375 " fill-opacity="1" fill-rule="nonzero"/><g clip-path="url(#id4)"><path fill="rgb(16.079712%, 40.779114%, 49.01886%)" d="M 240.105469 0.890625 L 51.679688 0.890625 C 25.105469 0.890625 4.167969 22.613281 4.167969 48.359375 L 4.167969 447.410156 C 4.167969 473.957031 25.910156 494.875 51.679688 494.875 L 240.105469 494.875 C 266.675781 494.875 287.613281 473.15625 287.613281 447.410156 L 287.613281 48.359375 C 288.417969 21.808594 266.675781 0.890625 240.105469 0.890625 Z M 275.535156 442.582031 C 275.535156 464.304688 258.625 482.808594 236.882812 482.808594 L 54.898438 482.808594 C 33.960938 482.808594 16.246094 465.109375 16.246094 442.582031 L 16.246094 53.992188 C 16.246094 32.269531 33.15625 13.761719 54.898438 13.761719 L 104.824219 13.761719 L 104.824219 15.371094 C 104.824219 21.003906 108.851562 25.027344 113.679688 25.027344 L 178.101562 25.027344 C 182.933594 25.027344 186.957031 21.003906 186.957031 15.371094 L 186.957031 13.761719 L 236.882812 13.761719 C 257.820312 13.761719 275.535156 31.464844 275.535156 53.992188 Z M 275.535156 442.582031 " fill-opacity="1" fill-rule="nonzero"/></g></svg>